<svg width="431" height="55" viewBox="0 0 431 55" fill="none" xmlns="http://www.w3.org/2000/svg">
<path d="M0.0288488 10.7642V1.63636H43.0345V10.7642H27.0033V54H16.0601V10.7642H0.0288488ZM47.9569 54V1.63636H68.616C72.5706 1.63636 75.9456 2.34375 78.741 3.75852C81.5535 5.15625 83.6927 7.14204 85.1586 9.71591C86.6416 12.2727 87.3831 15.2812 87.3831 18.7415C87.3831 22.2187 86.6331 25.2102 85.1331 27.7159C83.6331 30.2045 81.4598 32.1136 78.6132 33.4432C75.7836 34.7727 72.3575 35.4375 68.3348 35.4375H54.5024V26.5398H66.545C68.6586 26.5398 70.4143 26.25 71.812 25.6705C73.2098 25.0909 74.2495 24.2216 74.9313 23.0625C75.6302 21.9034 75.9796 20.4631 75.9796 18.7415C75.9796 17.0028 75.6302 15.5369 74.9313 14.3438C74.2495 13.1506 73.2012 12.2472 71.7865 11.6335C70.3887 11.0028 68.6245 10.6875 66.4938 10.6875H59.0279V54H47.9569ZM76.2353 30.1705L89.2495 54H77.0279L64.295 30.1705H76.2353ZM102.072 54H90.2088L108.286 1.63636H122.553L140.604 54H128.74L115.624 13.6023H115.215L102.072 54ZM101.331 33.4176H129.354V42.0597H101.331V33.4176ZM188.545 1.63636V54H178.982L156.201 21.0426H155.817V54H144.746V1.63636H154.462L177.064 34.5682H177.525V1.63636H188.545ZM238.557 10.7642V1.63636H281.563V10.7642H265.531V54H254.588V10.7642H238.557ZM318.829 1.63636H329.9V35.642C329.9 39.4602 328.988 42.8011 327.164 45.6648C325.357 48.5284 322.826 50.7614 319.57 52.3636C316.315 53.9489 312.522 54.7415 308.192 54.7415C303.846 54.7415 300.045 53.9489 296.789 52.3636C293.533 50.7614 291.002 48.5284 289.195 45.6648C287.388 42.8011 286.485 39.4602 286.485 35.642V1.63636H297.556V34.696C297.556 36.6903 297.991 38.4631 298.86 40.0142C299.746 41.5653 300.991 42.7841 302.593 43.6705C304.195 44.5568 306.062 45 308.192 45C310.34 45 312.207 44.5568 313.792 43.6705C315.394 42.7841 316.63 41.5653 317.499 40.0142C318.386 38.4631 318.829 36.6903 318.829 34.696V1.63636ZM355.411 54H336.848V1.63636H355.564C360.831 1.63636 365.366 2.68466 369.167 4.78125C372.968 6.86079 375.891 9.85227 377.937 13.7557C379.999 17.6591 381.03 22.3295 381.03 27.767C381.03 33.2216 379.999 37.9091 377.937 41.8295C375.891 45.75 372.951 48.7585 369.116 50.8551C365.297 52.9517 360.729 54 355.411 54ZM347.92 44.5142H354.951C358.223 44.5142 360.976 43.9347 363.209 42.7756C365.459 41.5994 367.147 39.7841 368.272 37.3295C369.414 34.858 369.985 31.6705 369.985 27.767C369.985 23.8977 369.414 20.7358 368.272 18.2812C367.147 15.8267 365.468 14.0199 363.235 12.8608C361.002 11.7017 358.249 11.1222 354.976 11.1222H347.92V44.5142ZM380.839 1.63636H393.24L405.18 24.1875H405.691L417.632 1.63636H430.032L410.933 35.4886V54H399.938V35.4886L380.839 1.63636Z" fill="black"/>
<path d="M223.938 16.696C223.733 14.6335 222.855 13.0312 221.304 11.8892C219.753 10.7472 217.648 10.1761 214.989 10.1761C213.182 10.1761 211.657 10.4318 210.412 10.9432C209.168 11.4375 208.213 12.1278 207.549 13.0142C206.901 13.9006 206.577 14.9062 206.577 16.0312C206.543 16.9688 206.739 17.7869 207.165 18.4858C207.608 19.1847 208.213 19.7898 208.98 20.3011C209.748 20.7955 210.634 21.2301 211.64 21.6051C212.645 21.9631 213.719 22.2699 214.861 22.5256L219.566 23.6506C221.85 24.1619 223.946 24.8437 225.855 25.696C227.765 26.5483 229.418 27.5966 230.816 28.8409C232.213 30.0852 233.296 31.5511 234.063 33.2386C234.847 34.9261 235.248 36.8608 235.265 39.0426C235.248 42.2472 234.429 45.0256 232.81 47.3778C231.208 49.7131 228.89 51.5284 225.855 52.8239C222.838 54.1023 219.199 54.7415 214.938 54.7415C210.711 54.7415 207.029 54.0938 203.892 52.7983C200.773 51.5028 198.336 49.5852 196.58 47.0455C194.841 44.4886 193.929 41.3267 193.844 37.5597H204.557C204.676 39.3153 205.179 40.7812 206.066 41.9574C206.969 43.1165 208.171 43.9943 209.671 44.5909C211.188 45.1705 212.901 45.4602 214.81 45.4602C216.685 45.4602 218.313 45.1875 219.694 44.642C221.091 44.0966 222.174 43.3381 222.941 42.3665C223.708 41.3949 224.091 40.2784 224.091 39.017C224.091 37.8409 223.742 36.8523 223.043 36.0511C222.361 35.25 221.355 34.5682 220.026 34.0057C218.713 33.4432 217.103 32.9318 215.194 32.4716L209.492 31.0398C205.077 29.9659 201.591 28.2869 199.034 26.0028C196.478 23.7187 195.208 20.642 195.225 16.7727C195.208 13.6023 196.051 10.8324 197.756 8.46307C199.478 6.09375 201.838 4.24432 204.838 2.91477C207.838 1.58523 211.248 0.920453 215.066 0.920453C218.952 0.920453 222.344 1.58523 225.242 2.91477C228.157 4.24432 230.424 6.09375 232.043 8.46307C233.662 10.8324 234.498 13.5767 234.549 16.696H223.938Z" fill="#9DD7C3"/>
</svg>
